# xmcd
#
# Track frame offsets:
#	150
#	3452
#	21869
#	40019
#	77367
#	96910
#	124402
#	145976
#	165387
#	185107
#	202937
#	222662
#	242726
#	259187
#	282180
#	298942
#	315399
#
# Disc length: 4400 seconds
#
# Revision: 3
# Processed by: cddbd v1.5.2PL0 Copyright (c) Steve Scherf et al.
# Submitted via: EasyCDDAExtractor 15.3.0.1
#
DISCID=f7112e11
DTITLE=Laura Pausini - Laura Live Gira Mundial 09
DYEAR=2009
DGENRE=Latin
TTITLE0=It's Too Late
TTITLE1=En Cambio No
TTITLE2=Como Si No Nos Hubieramos Amado
TTITLE3=Medley Rock (Disparame Dispara, Bendecida Pasion, Mi Perspectiva, Habl
TTITLE3=ame, Mis Beneficios)
TTITLE4=Amores Extraños
TTITLE5=Emergencia De Amor
TTITLE6=Viveme
TTITLE7=Entre Tu Y Mil Mares
TTITLE8=Volvere Junto A Ti
TTITLE9=Escucha Atento
TTITLE10=Yo Canto
TTITLE11=Se Fue
TTITLE12=Primavera Anticipada (It Is My Song)
TTITLE13=La Soledad
TTITLE14=Con La Musica En La Radio
TTITLE15=Ella No Soy
TTITLE16=Menos Mal
EXTD=
EXTT0=
EXTT1=
EXTT2=
EXTT3=
EXTT4=
EXTT5=
EXTT6=
EXTT7=
EXTT8=
EXTT9=
EXTT10=
EXTT11=
EXTT12=
EXTT13=
EXTT14=
EXTT15=
EXTT16=
PLAYORDER=
